/* XPM */
static char *_6724_379fe381a13945308f63f3ceeb75f29f6c8c83caa83c613b5010455348014cff[] = {
/* columns rows colors chars-per-pixel */
"80 80 217 2 ",
"   c #6E2B00",
".  c #712E00",
"X  c #763302",
"o  c #793501",
"O  c #7D3A02",
"+  c #773609",
"@  c #833E00",
"#  c #864100",
"$  c #8B4501",
"%  c #8E4901",
"&  c #8B4A0E",
"*  c #914701",
"=  c #954D00",
"-  c #994C00",
";  c #955003",
":  c #9B5301",
">  c #9E5A0B",
",  c #915315",
"<  c #A25302",
"1  c #A35B01",
"2  c #AA5C01",
"3  c #A25C08",
"4  c #A55F10",
"5  c #A66307",
"6  c #AC6402",
"7  c #A76408",
"8  c #AC6B0C",
"9  c #AC690A",
"0  c #B26501",
"q  c #B46B02",
"w  c #BA6D01",
"e  c #B26D08",
"r  c #B96D09",
"t  c #BE7202",
"y  c #B4720D",
"u  c #BB7408",
"i  c #BA770B",
"p  c #AD6D12",
"a  c #A66817",
"s  c #B37212",
"d  c #BC7C14",
"f  c #B87817",
"g  c #AC7116",
"h  c #BC7F21",
"j  c #C27502",
"k  c #C57A05",
"l  c #CA7C03",
"z  c #C37C09",
"x  c #C07709",
"c  c #C07E14",
"v  c #BD831B",
"b  c #BE8828",
"n  c #CE8205",
"m  c #C6820C",
"M  c #CB840C",
"N  c #CE8B0D",
"B  c #D18502",
"V  c #D58A03",
"C  c #DB8C06",
"Z  c #D48A0A",
"A  c #DB8E0A",
"S  c #D38608",
"D  c #DB9301",
"F  c #DE9902",
"G  c #D6920B",
"H  c #DD910A",
"J  c #C58414",
"K  c #C98612",
"L  c #CB8B12",
"P  c #C1841A",
"I  c #C58B1C",
"U  c #CC8D1A",
"Y  c #D08E14",
"T  c #CE9115",
"R  c #D49315",
"E  c #DB9413",
"W  c #DC9B14",
"Q  c #D29519",
"!  c #D8961A",
"~  c #D59B1D",
"^  c #DC9B1A",
"/  c #E19207",
"(  c #E29D00",
")  c #E2940A",
"_  c #E59B0E",
"`  c #E49B12",
"'  c #E19D1B",
"]  c #D7A01F",
"[  c #DFA317",
"{  c #E6A200",
"}  c #E9A500",
"|  c #ECAB04",
" . c #EDAE09",
".. c #EEB10D",
"X. c #E4A214",
"o. c #E5A31E",
"O. c #E7AA17",
"+. c #EFB512",
"@. c #EAB31E",
"#. c #F0B816",
"$. c #F0BC1C",
"%. c #F0B613",
"&. c #C08324",
"*. c #CF9121",
"=. c #CB952C",
"-. c #CA9626",
";. c #DA9D21",
":. c #D49C27",
">. c #D09D31",
",. c #D5A223",
"<. c #D9A423",
"1. c #DCAA26",
"2. c #D4A32B",
"3. c #DBA52B",
"4. c #D7A92E",
"5. c #DDAC2A",
"6. c #DEB02C",
"7. c #D5A433",
"8. c #DDAC35",
"9. c #D6A935",
"0. c #DEB43A",
"q. c #E3A522",
"w. c #E5AA24",
"e. c #EBB422",
"r. c #EDBC24",
"t. c #E2B42D",
"y. c #E5B92F",
"u. c #ECBA2D",
"i. c #F1BF21",
"p. c #E1B531",
"a. c #E6BC32",
"s. c #E8BF33",
"d. c #E1B53B",
"f. c #E5BC3C",
"g. c #E8B735",
"h. c #EEC52B",
"j. c #EEC429",
"k. c #F2C225",
"l. c #F3C62A",
"z. c #F3C92E",
"x. c #EAC236",
"c. c #ECC539",
"v. c #EECA3D",
"b. c #E7C03A",
"n. c #F4CC33",
"m. c #F2CE3A",
"M. c #F1C737",
"N. c #F5D137",
"B. c #F6D43B",
"V. c #F7D93E",
"C. c #C99F45",
"Z. c #D5AB48",
"A. c #DDB44A",
"S. c #E6BE44",
"D. c #E5BA46",
"F. c #E3BA52",
"G. c #EBC445",
"H. c #EDC944",
"J. c #E6C248",
"K. c #EECC4D",
"L. c #F1CC43",
"P. c #F2CC4A",
"I. c #F1C745",
"U. c #F4D343",
"Y. c #F7DA41",
"T. c #F8DD42",
"R. c #F5D44C",
"E. c #F7D94F",
"W. c #F9DB4B",
"Q. c #ECC353",
"!. c #EDCC53",
"~. c #EDCD5C",
"^. c #F2CE51",
"/. c #EFD15B",
"(. c #F3D353",
"). c #F7DA52",
"_. c #F9DD53",
"`. c #F1D55C",
"'. c #F5DB5C",
"]. c #F8DE58",
"[. c #F9E146",
"{. c #F9E54A",
"}. c #FAEA4E",
"|. c #F9E454",
" X c #FBEB54",
".X c #FCE35A",
"XX c #FBED59",
"oX c #F7E25C",
"OX c #FCF155",
"+X c #FDF45A",
"@X c #FEFA5E",
"#X c #EBCF61",
"$X c #EDD264",
"%X c #F7DD6C",
"&X c #F4DD61",
"*X c #F4DA74",
"=X c #F6E263",
"-X c #FAE464",
";X c #FBEB65",
":X c #F9E56A",
">X c #FAEC6D",
",X c #F0E06C",
"<X c #FDF461",
"1X c #FFFD61",
"2X c #FDF46C",
"3X c #F9E671",
"4X c #FBEC74",
"5X c #F6E27C",
"6X c #FBED7A",
"7X c #F5E178",
"8X c #FDF475",
"9X c #FDF07E",
"0X c #FFF971",
"qX c #F1DD80",
"wX c #FDF182",
"eX c #FBED84",
"rX c None",
/* pixels */
"rXrXrXrXrXrXrXrXrXrXrXrXrXrXrXrXrXrXrXrXrXrXrXrXrXrXrXrXrXrXrXrXrXrXrXrXrXrXrXrXrXrXrXrXrXrXrXrXrXrXrXrXrXrXrXrXrXrXrXrXrXrXrXrXrXrXrXrXrXrXrXrXrXrXrXrXrXrXrXrX",
"rXrXrXrXrXrXrXrXrXrXrXrXrXrXrXrXrXrXrXrXrXrXrXrXrXrXrXrXrXrXrXrXrXrXrXrXrXrXrXrXrXrXrXrXrXrXrXrXrXrXrXrXrXrXrXrXrXrXrXrXrXrXrXrXrXrXrXrXrXrXrXrXrXrXrXrXrXrXrXrX",
"rXrXrXrXrXrXrXrXrXrXrXrXrXrXrXrXrXrXrXrXrXrXrXrXrXrXrXrXrXrXrXrXrXrXrXrXrXrXrXrXrXrXrXrXrXrXrXrXrXrXrXrXrXrXrXrXrXrXrXrXrXrXrXrXrXrXrXrXrXrXrXrXrXrXrXrXrXrXrXrX",
"rXrXrXrXrXrXrXrXrXrXrXrXrXrXrXrXrXrXrXrXrXrXrXrXrXrXrXrXrXrXrXrXrXrXrXrXrXrXrX>._.rXrXrXrXrXrXrXrXrXrXrXrXrXrXrXrXrXrXrXrXrXrXrXrXrXrXrXrXrXrXrXrXrXrXrXrXrXrXrX",
"rXrXrXrXrXrXrXrXrXrXrXrXrXrXrXrXrXrXrXrXrXrXrXrXrXrXrXrXrXrXrXrXrXrXrXrXrXrXrXb ].rXrXrXrXrXrXrXrXrXrXrXrXrXrXrXrXrXrXrXrXrXrXrXrXrXrXrXrXrXrXrXrXrXrXrXrXrXrXrX",
"rXrXrXrXrXrXrXrXrXrXrXrXrXrXrXrXrXrXrXrXrXrXrXrXrXrXrXrXrXrXrXrXrXrXrXrXrXrX5 v .X.XrXrXrXrXrXrXrXrXrXrXrXrXrXrXrXrXrXrXrXrXrXrXrXrXrXrXrXrXrXrXrXrXrXrXrXrXrXrX",
"rXrXrXrXrXrXrXrXrXrXrXrXrXrXrXrXrXrXrXrXrXrXrXrXrXrXrXrXrXrXrXrXrXrXrXrXrXrX5 v .X.XrXrXrXrXrXrXrXrXrXrXrXrXrXrXrXrXrXrXrXrXrXrXrXrXrXrXrXrXrXrXrXrXrXrXrXrXrXrX",
"rXrXrXrXrXrXrXrXrXrXrXrXrXrXrXrXrXrXrXrXrXrXrXrXrXrXrXrXrXrXrXrXrXrXrXrXrXe 9 v .X.X_.rXrXrXrXrXrXrXrXrXrXrXrXrXrXrXrXrXrXrXrXrXrXrXrXrXrXrXrXrXrXrXrXrXrXrXrXrX",
"rXrXrXrXrXrXrXrXrXrXrXrXrXrXrXrXrXrXrXrXrXrXrXrXrXrXrXrXrXrXrXrXrXrXrXrXrXu e v ]..X_.rXrXrXrXrXrXrXrXrXrXrXrXrXrXrXrXrXrXrXrXrXrXrXrXrXrXrXrXrXrXrXrXrXrXrXrXrX",
"rXrXrXrXrXrXrXrXrXrXrXrXrXrXrXrXrXrXrXrXrXrXrXrXrXrXrXrXrXrXrXrXrXrXrXrXz u e P ]._.E.Y.rXrXrXrXrXrXrXrXrXrXrXrXrXrXrXrXrXrXrXrXrXrXrXrXrXrXrXrXrXrXrXrXrXrXrXrX",
"rXrXrXrXrXrXrXrXrXrXrXrXrXrXrXrXrXrXrXrXrXrXrXrXrXrXrXrXrXrXrXrXrXrXrXrXz x q Z.-X_.W.U.rXrXrXrXrXrXrXrXrXrXrXrXrXrXrXrXrXrXrXrXrXrXrXrXrXrXrXrXrXrXrXrXrXrXrXrX",
"rXrXrXrXrXrXrXrXrXrXrXrXrXrXrXrXrXrXrXrXrXrXrXrXrXrXrXrXrXrXrXrXrXrXrXS l x c qXwX_.Y.B.m.rXrXrXrXrXrXrXrXrXrXrXrXrXrXrXrXrXrXrXrXrXrXrXrXrXrXrXrXrXrXrXrXrXrXrX",
"rXrXrXrXrXrXrXrXrXrXrXrXrXrXrXrXrXrXrXrXrXrXrXrXrXrXrXrXrXrXrXrXrXrXrXS n z A.*XeX].U.B.n.rXrXrXrXrXrXrXrXrXrXrXrXrXrXrXrXrXrXrXrXrXrXrXrXrXrXrXrXrXrXrXrXrXrXrX",
"rXrXrXrXrXrXrXrXrXrXrXrXrXrXrXrXrXrXrXrXrXrXrXrXrXrXrXrXrXrXrXrXrXrXH C S U *XP.%X4XU.m.M.l.rXrXrXrXrXrXrXrXrXrXrXrXrXrXrXrXrXrXrXrXrXrXrXrXrXrXrXrXrXrXrXrXrXrX",
"rXrXrXrXrXrXrXrXrXrXrXrXrXrXrXrXrXrXrXrXrXrXrXrXrXrXrXrXrXrXrXrXrXrX/ C S F.%XI.^.6X).n.h.j.rXrXrXrXrXrXrXrXrXrXrXrXrXrXrXrXrXrXrXrXrXrXrXrXrXrXrXrXrXrXrXrXrXrX",
"rXrXrXrXrXrXrXrXrXrXrXrXrXrXrXrXrXrXrXrXrXrXrXrXrXrXrXrXrXrXrXrXrX/ / C ^ *XP.P.I.%X:Xn.h.j.r.rXrXrXrXrXrXrXrXrXrXrXrXrXrXrXrXrXrXrXrXrXrXrXrXrXrXrXrXrXrXrXrXrX",
"rXrXrXrXrXrXrXrXrXrXrXrXrXrXrXrXrXrXrXrXrXrXrXrXrXrXrXrXrXrXrXrXrX/ / / Q.%XP.P.P.P.6XU.u.i.e.rXrXrXrXrXrXrXrXrXrXrXrXrXrXrXrXrXrXrXrXrXrXrXrXrXrXrXrXrXrXrXrXrX",
"rXrXrXrXrXrXrXrXrXrXrXrXrXrXrXrXrXrXrXrXrXrXrXrXrXrXrXrXrXrXrXrXC C / q.*X(.R.R.P.P.%XoXj.$.@.@.rXrXrXrXrXrXrXrXrXrXrXrXrXrXrXrXrXrXrXrXrXrXrXrXrXrXrXrXrXrXrXrX",
"rXrXrXrXrXrXrXrXrXrXrXrXrXrXrXrXrXrXrXrXrXrXrXrXrXrXrXrXrXrXrXrXB C / Q.3XR.R.R.R.R.(.4XM.@.O.O.rXrXrXrXrXrXrXrXrXrXrXrXrXrXrXrXrXrXrXrXrXrXrXrXrXrXrXrXrXrXrXrX",
"rXrXrXrXrXrXrXrXrXrXrXrXrXrXrXrXrXrXrXrXrXrXrXrXrXrXrXrXrXrXrXl l C ' 5X].).R.R.R.R.P.:X).@...X.O.rXrXrXrXrXrXrXrXrXrXrXrXrXrXrXrXrXrXrXrXrXrXrXrXrXrXrXrXrXrXrX",
"rXrXrXrXrXrXrXrXrXrXrXrXrXrXrXrXrXrXrXrXrXrXrXrXrXrXrXrXrXrXrXl l V F.4X).).E.E.E.R.R.).:Xs.O._ _ rXrXrXrXrXrXrXrXrXrXrXrXrXrXrXrXrXrXrXrXrXrXrXrXrXrXrXrXrXrXrX",
"rXrXrXrXrXrXrXrXrXrXrXrXrXrXrXrXrXrXrXrXrXrXrXrXrXrXrXrXrXrXj j l ^ 5X.XW._._.E.).E.E.R.-X(.X._ / ` rXrXrXrXrXrXrXrXrXrXrXrXrXrXrXrXrXrXrXrXrXrXrXrXrXrXrXrXrXrX",
"rXrXrXrXrXrXrXrXrXrXrXrXrXrXrXrXrXrXrXrXrXrXrXrXrXrXrXrXrXrXw j l F.4X|._.|.|.W.E.E._.E.].-Xe.) / C rXrXrXrXrXrXrXrXrXrXrXrXrXrXrXrXrXrXrXrXrXrXrXrXrXrXrXrXrXrX",
"rXrXrXrXrXrXrXrXrXrXrXrXrXrXrXrXrXrXrXrXrXrXrXrXrXrXrXrXrX6 q t U 5X.X|.|.|.|._.|._._._.E.-XP._ / B Z rXrXrXrXrXrXrXrXrXrXrXrXrXrXrXrXrXrXrXrXrXrXrXrXrXrXrXrXrX",
"rXrXrXrXrXrXrXrXrXrXrXrXrXrXrXrXrXrXrXrXrXrXrXrXrXrXrXrXrX1 6 w F.8XXX|.|.|.|.|.|.|.|.E.|.|.-Xo.C n k rXrXrXrXrXrXrXrXrXrXrXrXrXrXrXrXrXrXrXrXrXrXrXrXrXrXrXrXrX",
"rXrXrXrXrXrXrXrXrXrXrXrXrXrXrXrXrXrXrXrXrXrXrXrXrXrXrXrX% : 2 v 5X;XXXXXXXXXXX|.|.|.|.|.|._.;XG.V j w e rXrXrXrXrXrXrXrXrXrXrXrXrXrXrXrXrXrXrXrXrXrXrXrXrXrXrXrX",
"rXrXrXrXrXrXrXrXrXrXrXrXrXrXrXrXrXrXrXrXrXrXrXrXrXrXrXrX# ; 1 Z.0XOXXXXXXX XXXXX|.|.XX|.|.|.oX=X! j 0 ; * rXrXrXrXrXrXrXrXrXrXrXrXrXrXrXrXrXrXrXrXrXrXrXrXrXrXrX",
"rXrXrXrXrXrXrXrXrXrXrXrXrXrXrXrXrXrXrXrXrXrXrXrXm i 0 % # % a 7X+X+X+X+XOXXXXXXXXXXXXX|.|.|.|.;Xd.t 1 ; f J._..XrXrXrXrXrXrXrXrXrXrXrXrXrXrXrXrXrXrXrXrXrXrXrXrX",
"rXrXrXrXrXrXrXrXrXrXrXrXrXrXrXrXrX] ~ ~ T T L K m m i q ; $ C.0X@X+X@X+X+X+X+XXXXXXXXXXXXX|..XXX&Xv 1 v f.(.]..X.X.X.X.X]._.E.rXrXrXrXrXrXrXrXrXrXrXrXrXrXrXrXrX",
"rXrXrXrXrXrXrXrXrXrXt.t.t.5.1.1.<.<.,.~ ~ Q T L L M J J P b ,X1X@X@X@X@X+X+X+X+X+X+XOX+XXXXXXXXX;XA.>.S.R.(.E._..X.X.X.X.X]._.E.R.R.U.L.H.v.rXrXrXrXrXrXrXrXrXrX",
"rXrXrXx.x.a.a.a.a.a.t.t.t.t.5.5.1.<.<.<.,.4.8.0.J.!.`.=X;X2X1X1X@X1X@X@X@X@X@X+X+X+X+XOX+XXXXXXXXX;X>X6X6X6X4X:X:X-X;X.X-X.X_._.E.R.R.R.U.v.c.c.c.x.x.y.x.rXrXrX",
"4.2.4.p.a.s.x.a.a.y.y.p.t.p.a.f.G.K./.'.=X;X<X<X+X<X+X+X+X@X<X@X@X1X1X1X@X1X@X<X@X@X<X+XOX+X+XOXOXXXXXXX+X.X;X>X8X9X9X9X9X6X6X4X-XoX_.R.U.U.B.v.c.c.x.x.6.,.:.4.",
"rXp 8 p f I ,.8.s.b.G.P.(.'.oX.X.X X X}.}.}.}.}.OXOXOXOXOX+X+X+X@X@X@X@X@X@X@X1X@X@X@X@X@X+X+X+X+XOXOX+XXXXXXX XXX|.|.XXoX;X>X4X6X6X6X6X:X:X'.R.f.4.I v 8 8 g rX",
"rXrX8 7 7 7 9 e v 7.U.T.T.T.T.T.[.[.[.[.{.{.}.{.}.}.}.}.OXOXOXOX+X+X+X+X@X@X@X1X@X@X@X1X@X@X@X@X+X+X+X+XXX+XXXXXXXXX XXXXX|.|.|.|.|.|.oX-XwX$X-.y 7 5 5 7 y rXrX",
"rXrXrXy e e e e e f 2.m.V.V.V.Y.V.V.[.[.[.{.{.{.{.{.}.}.}.}.OXOXOXOX+X+X+X@X@X@X@X@X@X@X@X@X1X@X@X@X+X+X+X+XOX+XOXXXXXXXXX XXX|.XX|.|.|.4X$XI e e e e e y rXrXrX",
"rXrXrXrXi i u u u t c 2.n.B.B.B.V.V.V.T.V.T.[.[.[.{.{.}.}.}.}.}.}.OXOXOXOXOX+X@X@X@X@X@X1X@X1X@X@X@X@X<X@X+X+X+X+X+XXXXXXXXXXXXX|.XXXX4X~.I u u u u u d rXrXrXrX",
"rXrXrXrXrXJ z z z z z K q.m.m.B.B.B.V.V.V.V.V.[.[.[.[.{.{.{.{.}.}.}. X}.OXOXOXOXOXOX+X@X@X@X@X@X1X1X@X1X@X@X@X@X@X+X+X+XOXXX+XXXXXXX9X/.U z z z k z J rXrXrXrXrX",
"rXrXrXrXrXrXM n l n n n K q.m.N.N.B.N.B.B.B.V.V.V.V.V.[.[.{.[.{.}.}.}.}.}.}.}.OXOXOXOX+X+X+X@X@X@X@X1X@X1X@X@X@X@X@X+X+X+X+X+XOXXX8X~.R S n n l n N rXrXrXrXrXrX",
"rXrXrXrXrXrXrXZ S S A A C A w.z.n.N.N.N.B.B.B.B.V.V.V.V.T.T.T.[.[.{.{.{.}.}.}.}.OXOX}.OXOXOX+X+X@X@X@X@X@X1X1X1X@X@X@X@X@X@X+X<X8X^.) S A S Z A R rXrXrXrXrXrXrX",
"rXrXrXrXrXrXrXrX) / C C A / ) w.l.n.n.z.n.N.N.B.N.V.V.V.V.V.T.T.V.[.[.[.[.{.}.}.}.}.}.OXOXOXOX+XOX@X+X+X@X@X@X1X1X@X1X@X@X@X<X8X^.` ) / / / H ) rXrXrXrXrXrXrXrX",
"rXrXrXrXrXrXrXrXrX_ ) / / / / ) o.l.z.z.z.n.n.N.N.N.B.B.B.B.V.V.V.V.[.[.[.[.[.[.{.{.{.}.}.}.OXOXOXOXOXOX+X+X+X@X@X@X1X1X1X1X8X^._ / / / / ) ` rXrXrXrXrXrXrXrXrX",
"rXrXrXrXrXrXrXrXrXrXrX) / C / C / o.u.l.l.z.z.z.z.N.N.N.N.N.B.V.V.V.V.V.[.V.[.[.[.[.{.{.{.{.{.}.}.OXOXOX+XOX+X+X@X@X@X@X1X8XG.H C C C / / ` rXrXrXrXrXrXrXrXrXrX",
"rXrXrXrXrXrXrXrXrXrXrXrXC C V B S A ' r.k.l.l.z.z.n.n.n.N.N.N.N.N.V.V.B.V.V.V.V.[.[.{.[.{.{.{.{.{.}.}.OXOXOXOXOXOXOX+X+X8XS.Z V B C C A A rXrXrXrXrXrXrXrXrXrXrX",
"rXrXrXrXrXrXrXrXrXrXrXrXrXS B S B l n ! e.i.k.k.k.k.z.z.z.n.n.n.N.N.N.N.V.V.V.V.V.V.V.[.[.[.{.{.{.{.{.}.}.}.}.OXOXOX+X8Xd.n l S n n S rXrXrXrXrXrXrXrXrXrXrXrXrX",
"rXrXrXrXrXrXrXrXrXrXrXrXrXrXn l l l j z R e.$.i.k.k.k.k.z.z.z.z.n.n.N.N.N.B.B.B.V.V.V.V.V.[.[.[.[.[.{.{.}.{.}.}.}.+X>X8.l j l l l l rXrXrXrXrXrXrXrXrXrXrXrXrXrX",
"rXrXrXrXrXrXrXrXrXrXrXrXrXrXrXj j j j t j K O.$.$.i.i.k.k.k.l.z.z.z.z.n.n.N.N.N.N.B.B.V.V.V.V.V.T.[.[.[.[.{.{.{.XX:X2.t w j w j j rXrXrXrXrXrXrXrXrXrXrXrXrXrXrX",
"rXrXrXrXrXrXrXrXrXrXrXrXrXrXrXrXw q 0 0 0 6 d O.%.#.$.$.$.k.k.k.k.k.z.z.z.z.n.N.N.N.B.N.B.V.V.V.V.V.T.T.[.[.[.|.=X=.6 0 0 0 q w rXrXrXrXrXrXrXrXrXrXrXrXrXrXrXrX",
"rXrXrXrXrXrXrXrXrXrXrXrXrXrXrXrXrX6 6 1 1 1 > p [ %.#.#.#.$.$.$.k.k.k.k.l.z.z.z.z.n.n.N.N.N.N.B.V.V.V.V.V.T.{.=Xb : : 1 1 1 2 rXrXrXrXrXrXrXrXrXrXrXrXrXrXrXrXrX",
"rXrXrXrXrXrXrXrXrXrXrXrXrXrXrXrXrXrX: = = = % 7 ~ ..+.+.%.#.#.$.$.i.i.k.k.k.k.z.z.z.z.n.n.N.N.N.N.N.V.V.V.V.|.D.3 = % % = ; rXrXrXrXrXrXrXrXrXrXrXrXrXrXrXrXrXrX",
"rXrXrXrXrXrXrXrXrXrXrXrXrXrXrXrXrXrXrX$ @ ; v 0.e. . . .....+.%.#.#.#.$.$.i.k.k.k.k.z.z.z.z.n.n.N.N.N.N.B.B.T.!.z 6 ; # # rXrXrXrXrXrXrXrXrXrXrXrXrXrXrXrXrXrXrX",
"rXrXrXrXrXrXrXrXrXrXrXrXrXrXrXrXrXrXrXrXg 4.c.K.+.| | |  . .......%.%.#.#.$.$.i.k.k.k.k.l.z.z.z.n.z.N.N.N.N.B.'.U m u 2 % rXrXrXrXrXrXrXrXrXrXrXrXrXrXrXrXrXrXrX",
"rXrXrXrXrXrXrXrXrXrXrXrXrXrXrXrXrXrXrXrXb.c.c.^.| } | | | |  .......+...+.#.#.#.$.$.$.i.k.k.k.j.z.z.z.z.n.n.B.'.:.m m u rXrXrXrXrXrXrXrXrXrXrXrXrXrXrXrXrXrXrXrX",
"rXrXrXrXrXrXrXrXrXrXrXrXrXrXrXrXrXrXrXrXc.c.H.K.( { { } } } | } |  . .......+.%.%.#.$.$.$.k.k.k.k.k.l.z.z.z.z.].8.L L m m rXrXrXrXrXrXrXrXrXrXrXrXrXrXrXrXrXrXrX",
"rXrXrXrXrXrXrXrXrXrXrXrXrXrXrXrXrXrXrXc.c.x.K.G.( ( ( { { } } } } | | |  .........%.%.#.#.$.$.$.i.k.k.k.k.z.z.E.S.T K K m rXrXrXrXrXrXrXrXrXrXrXrXrXrXrXrXrXrXrX",
"rXrXrXrXrXrXrXrXrXrXrXrXrXrXrXrXrXrXrXc.c.x.!.g.F ( ( ( ( ( { { } } } } | |  . .........%.#.#.#.$.$.i.k.k.k.k.B.!.Q T L L rXrXrXrXrXrXrXrXrXrXrXrXrXrXrXrXrXrXrX",
"rXrXrXrXrXrXrXrXrXrXrXrXrXrXrXrXrXrXrXc.c.M.`.w.D D D ( ( ( ( ( ( } } } } } } } | | ..........+.%.#.#.$.$.i.i.z.`.,.~ T T rXrXrXrXrXrXrXrXrXrXrXrXrXrXrXrXrXrXrX",
"rXrXrXrXrXrXrXrXrXrXrXrXrXrXrXrXrXrXrXc.c.c./.^ V D D D D F F F ( ( { { { } { } } | | | | ..........%.%.#.#.$.k.'.4.~ ~ Q rXrXrXrXrXrXrXrXrXrXrXrXrXrXrXrXrXrXrX",
"rXrXrXrXrXrXrXrXrXrXrXrXrXrXrXrXrXrXrXc.c.v.!.G V G D D D D F D F F F ( ( { { { } } } | | | |  .........%.%.#.#.].d.] ~ ~ rXrXrXrXrXrXrXrXrXrXrXrXrXrXrXrXrXrXrX",
"rXrXrXrXrXrXrXrXrXrXrXrXrXrXrXrXrXrXx.c.c.H.Q.V G V V V D V D D D D D F F ( ( D F { { { } } } |  .|  . .......%.R.J.<.,.] ~ rXrXrXrXrXrXrXrXrXrXrXrXrXrXrXrXrXrX",
"rXrXrXrXrXrXrXrXrXrXrXrXrXrXrXrXrXrXc.c.c.K.D.n B B B V V V V D D D D D F G g , a L ( { { { } } } | | |  . . ...M.!.1.1.,.,.rXrXrXrXrXrXrXrXrXrXrXrXrXrXrXrXrXrX",
"rXrXrXrXrXrXrXrXrXrXrXrXrXrXrXrXrXrXc.c.x./.9.B B B B B B V V V V V C E v , + . o & s Z ( { { { { { } } | | | | i.`.5.1.1.<.rXrXrXrXrXrXrXrXrXrXrXrXrXrXrXrXrXrX",
"rXrXrXrXrXrXrXrXrXrXrXrXrXrXrXrXrXrXc.c.x.`.] B B B B B B B B B V G U g & X     X O % 4 d G ( { { { { } } } } | +.&Xt.1.1.1.rXrXrXrXrXrXrXrXrXrXrXrXrXrXrXrXrXrX",
"rXrXrXrXrXrXrXrXrXrXrXrXrXrXrXrXrXrXx.x.c./.R B B B B v B n B Z Q v 4 $ O X     o @ $ = > 8 M G ( ( ( { { { { } | `.a.t.t.1.rXrXrXrXrXrXrXrXrXrXrXrXrXrXrXrXrXrX",
"rXrXrXrXrXrXrXrXrXrXrXrXrXrXrXrXrXrXx.x.c.~.N B B B B B n Z ! *.d 2 - @ O .     o # $ ; : 2 e d N H ( ( ( ( { { } P.S.t.t.t.rXrXrXrXrXrXrXrXrXrXrXrXrXrXrXrXrXrX",
"rXrXrXrXrXrXrXrXrXrXrXrXrXrXrXrXrXx.x.x.K.F.B B B n n V ^ ;.L j 0 2 - @ @ .     O @ * : : 6 6 w u L E F ( ( ( ( ( c.!.t.t.t.t.rXrXrXrXrXrXrXrXrXrXrXrXrXrXrXrXrX",
"rXrXrXrXrXrXrXrXrXrXrXrXrXrXrXrXrXs.a.x.G.D.B B B V W q.W S l w 0 < * @ o   . rXO # * = : 6 0 q t l M E E F D F ( y.`.t.y.t.t.rXrXrXrXrXrXrXrXrXrXrXrXrXrXrXrXrX",
"rXrXrXrXrXrXrXrXrXrXrXrXrXrXrXrXrXa.a.x.!.3.B V R ;.^ C C B j w 0 < * @ o rXrXrXrXrX; : 1 2 0 q j l n S A ' X.F D O.'.g.y.t.t.rXrXrXrXrXrXrXrXrXrXrXrXrXrXrXrXrX",
"rXrXrXrXrXrXrXrXrXrXrXrXrXrXrXrXrXy.a.a.!.^ L *.T Z C C V l j w 2 < * @ rXrXrXrXrXrXrXrX5 6 q w j l n B C ) ' q.o.X.(.s.a.a.a.rXrXrXrXrXrXrXrXrXrXrXrXrXrXrXrXrX",
"rXrXrXrXrXrXrXrXrXrXrXrXrXrXrXrXrXy.a.a.A.&.d u l B C C S l j j 2 < rXrXrXrXrXrXrXrXrXrXrXrXr t k l l V C / ) C ! q.$Xf.s.a.a.rXrXrXrXrXrXrXrXrXrXrXrXrXrXrXrXrX",
"rXrXrXrXrXrXrXrXrXrXrXrXrXrXrXrXrXt.t.t.f 3 6 t l B C C S l j 0 rXrXrXrXrXrXrXrXrXrXrXrXrXrXrXrXl l B V C ) ) C S l >.D.s.a.s.rXrXrXrXrXrXrXrXrXrXrXrXrXrXrXrXrX",
"rXrXrXrXrXrXrXrXrXrXrXrXrXrXrXrX5.6.t.I ; : 0 j l V C C V l rXrXrXrXrXrXrXrXrXrXrXrXrXrXrXrXrXrXrXrXS A C / ) C V l j =.f.s.s.s.rXrXrXrXrXrXrXrXrXrXrXrXrXrXrXrX",
"rXrXrXrXrXrXrXrXrXrXrXrXrXrXrXrX1.5.,.3 - 2 q j l V C / rXrXrXrXrXrXrXrXrXrXrXrXrXrXrXrXrXrXrXrXrXrXrXrXC ) / C l j j r 7.x.s.s.rXrXrXrXrXrXrXrXrXrXrXrXrXrXrXrX",
"rXrXrXrXrXrXrXrXrXrXrXrXrXrXrXrX,.<.s - ; 2 w j B C rXrXrXrXrXrXrXrXrXrXrXrXrXrXrXrXrXrXrXrXrXrXrXrXrXrXrXrX) A l l w 0 s A.s.x.rXrXrXrXrXrXrXrXrXrXrXrXrXrXrXrX",
"rXrXrXrXrXrXrXrXrXrXrXrXrXrXrXrX~ I : = : 2 w l rXrXrXrXrXrXrXrXrXrXrXrXrXrXrXrXrXrXrXrXrXrXrXrXrXrXrXrXrXrXrXrXn j j 0 2 h g.x.rXrXrXrXrXrXrXrXrXrXrXrXrXrXrXrX",
"rXrXrXrXrXrXrXrXrXrXrXrXrXrXrXrXU 7 = = : 6 rXrXrXrXrXrXrXrXrXrXrXrXrXrXrXrXrXrXrXrXrXrXrXrXrXrXrXrXrXrXrXrXrXrXrXrXr 0 2 < =.c.rXrXrXrXrXrXrXrXrXrXrXrXrXrXrXrX",
"rXrXrXrXrXrXrXrXrXrXrXrXrXrXrXrXy - = : rXrXrXrXrXrXrXrXrXrXrXrXrXrXrXrXrXrXrXrXrXrXrXrXrXrXrXrXrXrXrXrXrXrXrXrXrXrXrXrX3 : > 9.c.rXrXrXrXrXrXrXrXrXrXrXrXrXrXrX",
"rXrXrXrXrXrXrXrXrXrXrXrXrXrXrXu < : rXrXrXrXrXrXrXrXrXrXrXrXrXrXrXrXrXrXrXrXrXrXrXrXrXrXrXrXrXrXrXrXrXrXrXrXrXrXrXrXrXrXrXrX* a d.rXrXrXrXrXrXrXrXrXrXrXrXrXrXrX",
"rXrXrXrXrXrXrXrXrXrXrXrXrXrXrX2 rXrXrXrXrXrXrXrXrXrXrXrXrXrXrXrXrXrXrXrXrXrXrXrXrXrXrXrXrXrXrXrXrXrXrXrXrXrXrXrXrXrXrXrXrXrXrXrXb rXrXrXrXrXrXrXrXrXrXrXrXrXrXrX",
"rXrXrXrXrXrXrXrXrXrXrXrXrXrXrXrXrXrXrXrXrXrXrXrXrXrXrXrXrXrXrXrXrXrXrXrXrXrXrXrXrXrXrXrXrXrXrXrXrXrXrXrXrXrXrXrXrXrXrXrXrXrXrXrXrXrXrXrXrXrXrXrXrXrXrXrXrXrXrXrX",
"rXrXrXrXrXrXrXrXrXrXrXrXrXrXrXrXrXrXrXrXrXrXrXrXrXrXrXrXrXrXrXrXrXrXrXrXrXrXrXrXrXrXrXrXrXrXrXrXrXrXrXrXrXrXrXrXrXrXrXrXrXrXrXrXrXrXrXrXrXrXrXrXrXrXrXrXrXrXrXrX"
};
