/* XPM */
static char *ece827a0cc364df6e3fae8888b7feb08lIWZbJwTxkERzmnB[] = {
/* columns rows colors chars-per-pixel */
"64 64 224 2 ",
"   c #342F0F",
".  c #2E2D1D",
"X  c #342E1D",
"o  c #362F18",
"O  c #3A3216",
"+  c #35311D",
"@  c #3A321D",
"#  c #3F381D",
"$  c #373117",
"%  c #36300E",
"&  c #2E2C25",
"*  c #2E2D2C",
"=  c #2D2729",
"-  c #342E24",
";  c #382E24",
":  c #332E2A",
">  c #392F2A",
",  c #2F302B",
"<  c #353124",
"1  c #3A3224",
"2  c #34312B",
"3  c #3B332B",
"4  c #3E392C",
"5  c #3D3922",
"6  c #2E2E32",
"7  c #322E32",
"8  c #382F30",
"9  c #2F3032",
"0  c #343132",
"q  c #3B3532",
"w  c #3E3933",
"e  c #313038",
"r  c #3D3A3C",
"t  c #413919",
"y  c #413625",
"u  c #433C25",
"i  c #41362C",
"p  c #443C2C",
"a  c #493E2C",
"s  c #493E24",
"d  c #413731",
"f  c #443C33",
"g  c #493E33",
"h  c #453E3A",
"j  c #493E3B",
"k  c #49401F",
"l  c #474123",
"z  c #4B4424",
"x  c #4E4922",
"c  c #45412B",
"v  c #4B432C",
"b  c #4E492B",
"n  c #50462C",
"m  c #524B2C",
"M  c #534B26",
"N  c #56522B",
"B  c #5B542F",
"V  c #464034",
"C  c #4C4434",
"Z  c #4E4933",
"A  c #46423C",
"S  c #4C443B",
"D  c #4E493C",
"F  c #514634",
"G  c #534B34",
"H  c #50463C",
"J  c #534B3C",
"K  c #5A4F3D",
"L  c #565033",
"P  c #5B5335",
"I  c #5F5935",
"U  c #56503B",
"Y  c #5C533C",
"T  c #5D583D",
"R  c #615B35",
"E  c #635C3C",
"W  c #63593E",
"Q  c #66613B",
"!  c #69633D",
"~  c #4C4541",
"^  c #4B4844",
"/  c #544C42",
"(  c #554C44",
")  c #545144",
"_  c #5C5443",
"`  c #5E5943",
"'  c #5C5549",
"]  c #5C584A",
"[  c #5A5551",
"{  c #615641",
"}  c #625B43",
"|  c #61574A",
" . c #635C4C",
".. c #695F47",
"X. c #625A51",
"o. c #605750",
"O. c #676045",
"+. c #6C6543",
"@. c #6E6943",
"#. c #6A6449",
"$. c #6F694D",
"%. c #67604C",
"&. c #716B46",
"*. c #736D4B",
"=. c #786F4E",
"-. c #77714D",
";. c #78734D",
":. c #767147",
">. c #6D6553",
",. c #6E695B",
"<. c #6B675B",
"1. c #746C52",
"2. c #756E5C",
"3. c #767151",
"4. c #7B7452",
"5. c #7F7954",
"6. c #74715B",
"7. c #7B745C",
"8. c #7F7C5D",
"9. c #757064",
"0. c #7E7864",
"q. c #7E7C6B",
"w. c #7A7366",
"e. c #776F62",
"r. c #827C56",
"t. c #837D5B",
"y. c #80775A",
"u. c #837C63",
"i. c #847E6B",
"p. c #837E71",
"a. c #86815C",
"s. c #89845D",
"d. c #8D895F",
"f. c #858056",
"g. c #878163",
"h. c #8B8662",
"j. c #8E8963",
"k. c #85816D",
"l. c #8C846C",
"z. c #8F8969",
"x. c #918C65",
"c. c #938E6A",
"v. c #949067",
"b. c #96916B",
"n. c #99946D",
"m. c #9D996F",
"M. c #8C8875",
"N. c #8C8B79",
"B. c #898674",
"V. c #938D72",
"C. c #928D7B",
"Z. c #979173",
"A. c #9B9672",
"S. c #9E9973",
"D. c #9D967C",
"F. c #9F9A7A",
"G. c #95917C",
"H. c #A19B74",
"J. c #A29D79",
"K. c #A7A37C",
"L. c #AAA57D",
"P. c #ACA87E",
"I. c #A6A177",
"U. c #B0A97F",
"Y. c #948E83",
"T. c #9C9784",
"R. c #969384",
"E. c #A19B81",
"W. c #ABA682",
"Q. c #AEA983",
"!. c #A6A18E",
"~. c #ABA58C",
"^. c #AEA98B",
"/. c #A7A284",
"(. c #B1AC85",
"). c #B3AE8A",
"_. c #B4B186",
"`. c #B6B28C",
"'. c #B9B48E",
"]. c #BBB88F",
"[. c #ABA594",
"{. c #ABA893",
"}. c #A8A498",
"|. c #B2AD92",
" X c #B3AD9D",
".X c #B6B192",
"XX c #BBB592",
"oX c #BDB994",
"OX c #B4B09C",
"+X c #BBB69B",
"@X c #BEBB99",
"#X c #B8B3A3",
"$X c #B5AFA1",
"%X c #C3BF9A",
"&X c #C0B997",
"*X c #C7C29C",
"=X c #C9C49E",
"-X c #CAC5A3",
";X c #CDC9A4",
":X c #CAC5AA",
">X c #C9C4A7",
",X c #D2CDA6",
"<X c #D4CDAA",
"1X c #D8D4AD",
"2X c #C9C4B5",
"3X c #DBD6B2",
"4X c #DED9B3",
"5X c #DED8BD",
"6X c #D3CDB3",
"7X c #E1DDB6",
"8X c #E2D8BF",
"9X c #E5E1BA",
"0X c #D9D4C5",
"qX c #E4DEC4",
"wX c #EBE7C7",
"eX c #F6F0CD",
"rX c #FFFBD7",
"tX c #FFFDDE",
"yX c #FBF5D1",
"uX c #F0EBD8",
"iX c #FFFDE2",
"pX c #FFFFEB",
"aX c #FFFEF2",
"sX c #F4EEE0",
/* pixels */
"P } !. Xp.B.9.OXN.,.N.k.R.#X2X#X[.T.0XOXY.0X2XT.!.~.T.uX2XN.] + L Z.:XiXiXtX6.I Q ;.a.n.Q.*X`.Q.h.W.&X&XrX=X(.=XeX<X).(.`.eX:X8X",
"u $ - - ; - + < + < - < X < ; < + o X - 3 ; < @ + + 1 1 ; < & < >Xb W.Z.g.b b % I 8.a.d.a.I M I M s.A.=.E O I r.;.r.s.r.R E P O ",
"!.1 - f 2 < 3 3 < - 2 1 @ < / - + G 0.V i 1 . 3 1 ; i - : : * < :X;.3.Z.Z.u.R z.j.S.P.P.d.S.8.a.W.J.4.l.c.c.s.L.(.Q.A.x.t.=.V.v ",
"p.< 2 : 3 A f - D - 3 : ' K < y _ ..p 1 1 4 S - 1 H - 3 h h q & D.*.8.j.t.t.J.b._.Q.L.v.m.S._.A.n.x.W..XS.h.*X(.K.Z.j.s.W.b.y.O ",
"}.< < w w < g g > > | | i F { ..K 1 p g j d : f p < G T _ ) 2 2 D.H.Q.(.(.c.).=X_.s.x.L.W.L.j.S.U.W.W.Q.&X).(.L.x.n.(.A.s.=.} } ",
"q., , , f V + < i j ; y p ..v s u 1 H 3 d f ~ d _ } O.T 5 < 2 & t.'.L.J.W.'.Q.Q.v.P.P.K.n.m.W.j.`.Q.Z.XXW.W.J.L.).K.s.r.c.x.^.@ ",
"N.. , A , : ; 1 i ( y _ C { F @ o @ u | S a a i p C + X 3 0 , 2 l.s.U.L.L.b.L.H.m.m.x.L.P.j.c.'.U.%X<X).Q./.`.K.H.H.K.L.XXQ.y.O ",
"M.. < , 2 2 4 K K K C u W o @ C K >.C @ f p ; a C ; ; 3 w q 9 < |.&.f.n.(.L.L.b.j.m.Q.d.J._.b.`.<X=X'.Q.Q.Q.L.s.W.Q.].(.K.t.4.u ",
"6.+ & < + J K Y W t { Y + u F K g ; ; a ; 3 S ; > i j S 2 2 , , oX;.Q.Q.L.n.d.d.L.Q.r.).S.W.`.4X9X_.Q./.W.s.a.v.S.`._.P.j.W.3.b ",
"T.+ w S J c u t a F t g C C C 3 > j > > ( / > g f f d : 2 2 , & 5XK.c.c.n.x.m.I.;.s.Q.Q.v._.4X'.Q.P.W..XK.Q.b.`.*XQ.m.(.L.n.O.$ ",
"2X< ~ d 4 ; Z Y @ g ..( < i < ; > > j A > > g u a f f h q , 2 < :Xr.j.m.L.(.x.;.b.W.s.A.3X-XS.P.P._.Q.c.W._.4X*X).W.(.P.x.4.*.u ",
"}.< ; : 3 ' Z v ..( i ; 3 : d 3 f f 1 3 f 1 { J a a S 2 * 2 , . ^.5.x.'.L.r.;.m.t.)..X'.Q.j.`.P.v.S.Q./.XX].W.L.).W.n.a.j.A.^.P ",
"9.< ; ~ C ` J 1 + 3 f > f g g C 1 3 S < u Z Z g H C 3 j ( , , < V.s.x.-.r.a.n.d.J.H.).c.Q.).Q.Q.P.S.oXoXQ.Q.^.(.H.n.c.t.x.'.D.n ",
"p.- - A ] 1 < < i ; > j g g f J S < f C y C J F ; i C i < w 2 & g.E H._.v.P.m.H.Q.c.x.`.W.(.K.H.].].oX.X`.XX_.Q.K.x.t.H.`.K...o ",
"B.+ V 2 : : f 4 g f ; g p F | ; q ~ d > 4 j ; f ; C < 4 | 0 * 2 E.H.L.Q.L.x.U.v.x.Q.Q.W.).Q.Q._.7X.X/.`.J.K.(.b.&.s.b.W.n.Q.u.n ",
"OXX 2 * : r f 2 2 > 3 H H ; ; g ; 2 : f q > ; 3 ; X _ V - * : 2 ~.A.j.j.P.=Xd.m.W.W.Q.).K.`.;X9XQ._.Q.F.Q.L.H.L.(.`.H.n.W.y.4.t ",
"M.. < , q * 2 : : 0 : 8 ; f ; ; 3 h : 0 > 3 1 ; i C < X 1 D 2 * /.Q d.P.d.R m.L.Q._.S.`.@X9X;X_.Q.J.m.S.m.Q.Q.]./.J./.a.j./.$.5 ",
"0.< * q 0 9 * ^ 2 * 0 3 S - 4 ' f : A 8 8 : 1 f C < 1 ' ,.2 * < D.s.@.N f.P.H.L.S.J.n.>X.X_._.b.W.K.J.j.b._._.m.Q.a.d.v.d.F.M.. ",
"q.< & 2 * ^ w , & 2 ^ A - J ' 4 < A 8 7 : : 1 ; 1 ' o.2 0 7 * < OXt ;.Q.U.U.m.H.S.Q..Xj.Q.Q.v.K.Q.z.A._.-X@XQ.v.v.Q.Q.Q._.Q.k.5 ",
"c < , , : : 2 < 2 V < 3 ) V < f : 2 = * q 2 i ~ | ; 1 0 7 r 2 - ~.s.P.(.n.m.P.L.Q.m.j.Q.K.Q.Q.P.W.`.>X3X].j.v.Q.Q./._.Q.h.a.8.+ ",
"] X : : * * - S f - D f 1 1 3 > d : 3 f g p o.f ; 4 - f q 6 2 . 6X4.A.j.P.P.P.:.v.].Q._.P.P.I.P.`.].1X.Xj.P.Q.Q.].Q.d.s.j.h.` l ",
"q.- : : : q d < g ' 1 1 g 3 : 8 : 2 f p _  .1 3 ; f g h : * * < |.&.n.Q.P.! :.P.L.m.(.L.m.P.P.7X3X@XQ.Q.Q.P._./.v.I.m.L.8.S.z.. ",
"N.< 2 : ~ ( i / ; g f > 3 - 8 : > f ` } v @ S 4 i d - ; / 2 * 2 >X@.n.@.:.P.m._.Q.P.m.f._.wX1X].Q.Q.`.Q._.Q.v._.S.S.I.v.d.F.T + ",
"M.. d ~ q J C X f ; g : > > > ~ d g v + C H 3 f ; - S / - 2 : - Z.z r.).P.*XQ.L.P.d.v.4X,XW.W.W.`.-X@X.Xv._._.b.Q.(.b.5.j.g.b + ",
"T.+ - D C - } F F ; i q 8 ~ ~ d ; < 1 H 1 d ; ; ; d > d q 2 7 : u.c.Q.XX&XQ.K.j.;._.*XW.Q.Q..X>X.X&X/.-X&X(.).).b.z.j.c.Q.g.C + ",
"OX+ 1 X Y 6.v @ F j ; ~ d 3 > > i J i i f > ~ H > > 3 ; d w 7 2 ~.A.&XQ.t.L.d.A.Q.P./.b.-X>X.X.XXX`.<X).W.).%X(./.g.W.j.c.$.` C ",
"6.X G _ v $ l Y j H j 8 : 1 2 V J p ; ; ; ( ( : q > - g / ^ * 2 +XL.r.s.x.b.(.L.P.P.*X1X_.@X^.|..XQ.).).7X(.n.n.a.b.b.a.b.^.g.X ",
"G.p G c v T G 5 g ; > = ; 2 D f K i 3 3 S 1 f q > > / f 1 * 7 2 |.;.j.x.K.L.L.(.,X*XP.].`.W.`.S.).Q.<X&Xt.n.t.x.b.j.j.,X=XK.c + ",
"!.p f J V 1 Z 5 ; > : q h 3 A c 3 / f 2 w 3 4 : f ( ; q w 2 2 < ^.R j.A.b..X&X=XL.S.L.P.H.A.W.'.Q.`.b.W.H.x.d.x.H.3X,XQ.;.*.Z D ",
"B.X - & 2 4 , < 0 : 7 * 0 h w - 2 < 2 2 2 2 2 A : 2 f : 2 0 0 . .Xm 3.j.Q./.Q.b.j.L.m.m.(.`.t.`.Q.W.H.t.u.H.U.<X;Xc.a.;.z.3.` < ",
"<.2 - 2 2 * , * * 6 0 6 * 2 * * : 0 : * 9 9 2 , : & 0 7 6 0 * < {.0.} Z k.D.u.L 3.8.h.Q.+.=.t...E n y.u.$.t.u.y.~.i.u.6.l _ 9.< ",
"X - < : , < 2 < : 2 : - - < - < < - & 2 * - 2 & - < : : : * , & 2X. < + c + o @ l ` l v G # v + t p y s G n W a n F v $ c < ; : ",
"6.|.~.u...A.oX=X^.8.^.c.^.).>X|.wXwX:X8XsX8XW.y.C.).|.qXwXpXsXaXZ . Z $X2.{. X0X#X!.:X!.!.{.M.^. .V.#X!.OX[.G.i.{.6.{.k.}.9.A , ",
"=XI E 4.W.x.E x r.x.r.s.;.x.;.y.W M y.A.n.B M R 4.r.Q N N l p ; D 1 X < < < . < < 2 & < < + X + + @ a - - - 1 < . < X - 2 < < , ",
"7X&.@.W.W.x.r.n.P.(.(.(.n.H.h.c.m.U.t.t.t.m.v.r.r.t.s.a.-.4.2.; 9.- & S D < 2 V - < - - p 2 < i ( 1 3 : : ; g 4 - 1 w - 2 : * 9 ",
"*X&.x.a.A._.&X)._.(.c.Q.h.h.x.K.U.t.t.U.I.t.r.r.t.r.t.h.j.V.u.; w.< < 1 < A , 2 2 & S 2 3 D D d i ; > d S 3 : > 2 < : f 2 2 7 6 ",
"rXx r.'.-X'.b.c.b.Q.b.b.s.n.L.s.r.x.x.t.y.y.n.t.x.H.x.U.).c._ < 9.- - 4 - 1 2 : ~ d 8 3 d q 3 > ; ; H X.; 1 f ; 3 i D o.: 0 : 6 ",
"Q.*.Q._.L.Q.L.Q.x.b.L.x.L.(.d.n.m.n.t.x.U.U.n.n.x.t.H.H.c.4.1.1 i.; - S 2 2 S 4 : w j q : 1 3 > i | f ; i A 3 3 C H G 3 A : 6 * ",
"(.r.h.L.(.).H.W.c.n.'.(.J.J.(.m.L.U.(.U.m.H.t.x.U.m.J.U.n.Z.i.1 e.- C 4 f h 3 > g ; ; - d 3 ; S C < 3 p S 3 C _ a - ) < < & 2 * ",
"d.Q x.4Xt.H.W.H.).).a.A.b.n.H.).U.L.(.t.m.n.U.L.U.n.s.U.x.x.i.u  X- p D < 1 f 1 ; D f f ; g S ; p K _ i J C a 1 p C 4 D < * 2 6 ",
"s.L.S.t.A.n.).'.j.a.5.(./.L.(.L.L.t.H.t.n.Q.U.U.b.h.x.x.L.'.u.+ C.X X f u i - C S f ; ; _ K g K | < < C S S C g J 3 4 3 2 0 * 9 ",
"Q x Q.Q.'.).t.b.h.b.@XW.(.).K.s.m.(.n.(.Q.U.n.x.x.P.P._.(.t.P y u.X f J f - J f 1 X a J i g ; ; X V < p ; > ( i ; ; d h ~ , 6 9 ",
"R L.XX(.J.t.x.W.@X`./.h.(.A.*.'.U.v.U.U.d.n.J.'.L.m.(.d.s.s.n 1  X< V V j j - ; ; J H a F X o < V a 1 < S S : - > g j q * 6 9 6 ",
"s._.x.a.x.XX%X`.`.b.v.A.&.;.).Q.(.&Xh.t.H.&Xv.r.(.I.d.P.r.W { y  X+ V C ; > > H C a _ Z + C { p C # p ,.f ; ; 4 f : ; : 0 6 * 9 ",
"b.a.v.-X-X-X).`.b./.r.;.-X^.F.@Xj.:.K.<Xm.;.Q.Q.j.W.Q.d.n.V.u.u [.- < - : f > > S F @ c F p F # c 1.>.C < C f S 1 1 1 : & q 0 9 ",
"A.`.6XQ.Q.W.).(.b.j.;X].b.XX).).F.`.W.3.L.Q.(.A.A.Q.K.Q.H.A._ i q.< ; 3 3 > ; F C F v b z G @ { r.P p a C i V 3 d : : ~ q * : * ",
"tXA.S.^.J.b.(.Q.3X9XW.@X@X>X3X.XA.j.A.`.oX`.H.`.`.`.m.(.`.c.G @ 2.X < ; : S H f u G v m P P t.} s s ..o c 3 1 f w ~ > : h q * 2 ",
"tX6.z.h.h.W.rX3XP.`.`.'.eX.XF.j.A.W..X`.Q.'.).Q.L.(.x.s.t.y.>.+ C.- 2 1 j i 4 g F p M b r.3.U L P W m G V V ( d > : h A 2 * 0 : ",
"rXt.3.A.;X%XH.Z.L.Q.`.'.S.S.W./.`.XXQ.`.'._.m.P.P.d.x.r.A.r.2.1 2.X S 1 3 3 g 1 s K R y.W M M M F F n s U K 1 : j j : 3 1 : 2 * ",
"<Xl XXXXt.s.t.Q.'.XXQ.S.K.F.`.].`._.Q.).Q._.P.b.n.x.x.m.r.=.l.< }.1 - 3 C ; F G g W y.! t n P n s a K W p 1 ; h : > S S 2 2 & 0 ",
"<Xs.3.;.t.U.%X&X).P.I.P.H.P._.`.L.P.).Q.Q.v.b.n.J.H.;.m.d.Z.l.u [.< h : 3 i v #.y.y.n W R t a F W G a i : ; ; ; _ _ 1 - 2 * 0 , ",
"x.! t.Q.U.L.L.U.K.(.H.P.P._.L.L.n.c./.c.b.W.Q..Xh.h.H.f.4.b.i.a OX- : - 1 X.W L s t s s W M K ( a C > ; ; ; J _ u 1 i f [ 0 9 6 ",
"&.t.I.r.U.(.L.U.v.h.W.b.Q.m.v.Z.Q.W.).W.(.'.t.j.h.g.t.s.(.^.u.+ i.+ - _ F C F 1 t a W W t G g g > > - X J _ f i i - 3 ~ - : * 6 ",
"R B t.%X(.U.n.v.Q.b.v.W.a.W.L.Q.).~.-X).A.b.s.x.).r.n.K.Q.V.2.; B.. D < C ; - a K K s F n g a i > > C _ u l g ; d H 3 1 < 0 7 6 ",
"R H.(.U.U.t.v.x.v.Q._.S.P.Q.S._.XXXXQ.c.H.L.=Xx.h.A.W.n.A.u.a 1 i.< ) p ; ; a | a y F a p a a @ C %.u b G u F C i d > 3 : * 6 9 ",
"r.t.n.n.t.U.x.U._.b.Q.Q.n.A.oX`.x.c.K.b.c.s.t.Q.Q.h.).n.t.4.a + 2X4 - - d g ; s a W a s F { y J K y Z v U Z 1 C y i ; ; S w * * ",
"*.;.s.r./.Q.b.h.'.3Xb.Z.(.).n.Q.A.x.c.b.a.L.).).<X&X&.c.j.h.7.J Y.& : d > ; v G L z m W m P _ i S ; J i ; g f i i g F G 1 < : 2 ",
"x.R s.K.s.t.).4XW.W.oX*XZ.Q.Z.;.L.L.s.b.4X(.,X4XE u.Q.Q.`.j.#.5 ,.- 2 : ; < v b G { n s R L v i i 3 - f j 3 i g g y g ; _ f & 2 ",
"t.M y.t.A.<X-XS..X-Xh.g.t.Q.-X`.s.t.;XoXn.4Xr.! W.%X(.L.J.Z.L X M.+ - - U C Z { ` u Y T W Y ; 1 ; D D u + { C F F y a { p & : * ",
"R R h.(.%X]._.'.z.-.t.S.wX=X=.h.-XoXh.4X-Xa.oX'.)..XXXW.h.g.%.+ } o ` U J Z F 1 p Z ` Y + ; - f - ; < U Z K 7.C s | g i w 2 0 * ",
"s.(.(.U.Q.S.h.t.t.H.7X-Xb.H.(.=X4.).Q.4./._.=X<X).'.n.).A.T c + |.b Z D f ; 3 < 1 D : ; 2 3 2 : : A ( S ) 4 4 D f < w ) h 2 6 e ",
"t.r.n.r.D.r.4.4.).-Xh.t.b.-X*.4.`.*.t.W.-XyX(./.)./.K.).a.T 6.1 {.$ + ; q 2 2 2 f : : : 2 2 * r * : , , 2 < 2 & 2 4 2 & 2 e 6 6 ",
"l.y.u...t Z #.l.i.>.2.).J.@ W #.E A.4.z.Q.x.h.P c.>X=.z F.g._ Z {., : : 0 : : 2 : 6 2 * , 0 6 6 , * 2 & , * 2 0 , 2 & 2 * * 6 6 ",
"~.o < o + 5 + < @ >.K X + @ + P #.Q s s 4.m t 1._ $ b m   #.Z + < , 6 7 7 7 : 7 0 7 * 2 * * e e 0 , , , 6 9 6 6 * 9 * , , , * 9 "
};
